<?xml version="1.0" encoding="utf-8"?>
<!-- Generator: Adobe Illustrator 17.1.0, SVG Export Plug-In . SVG Version: 6.00 Build 0)  -->
<!DOCTYPE svg PUBLIC "-//W3C//DTD SVG 1.1//EN" "http://www.w3.org/Graphics/SVG/1.1/DTD/svg11.dtd">
<svg version="1.1" id="Layer_1" xmlns="http://www.w3.org/2000/svg" xmlns:xlink="http://www.w3.org/1999/xlink" x="0px" y="0px"
	 viewBox="0 0 94.2 93.2" enable-background="new 0 0 94.2 93.2" xml:space="preserve">
<path fill-rule="evenodd" clip-rule="evenodd" fill="#010101" d="M47.1,91.5c-7.2,0-14.4,0-21.6,0c-3.3,0-6.6-0.1-9.8-1.2
	C8.6,87.9,4.1,82.9,2.8,75.4c-0.5-3.2-0.6-6.5-0.6-9.8c-0.1-13.6,0-27.3,0-40.9c0-3.3,0.1-6.6,1.3-9.7C6.2,7.5,11.6,3.1,19.6,2.1
	c2.8-0.3,5.7-0.4,8.5-0.4c13.5,0,27,0,40.5,0c3.4,0,6.8,0.1,10,1.2c7.1,2.5,11.5,7.4,12.8,14.8c0.5,2.9,0.6,6,0.6,9
	c0.1,13.9,0,27.8,0,41.6c0,3.1-0.2,6.2-1.1,9.2c-2.1,7.4-8.6,12.8-16.3,13.5c-3.1,0.3-6.1,0.4-9.2,0.4
	C59.3,91.6,53.2,91.6,47.1,91.5L47.1,91.5z M32,35.4c-0.1,2.6,0.6,5.2,1.9,7.7c1.2,2.2,2.4,4.4,3.8,6.5c4.4,6.8,7.2,14.1,7.9,22.2
	c0.1,1.1,0.6,1.4,1.5,1.4c0.9,0,1.3-0.4,1.4-1.6c0.6-6.8,2.7-13.2,6.2-19.1c1.6-2.7,3.2-5.3,4.8-8c2-3.4,3-7.1,2.5-11
	c-0.9-8-8-13.3-15.1-13.1C38.6,20.4,32,26.8,32,35.4 M53.3,35.5c0-3.4-2.7-6.3-6-6.3c-3.7,0-6.4,2.5-6.4,6.1c0,3.5,2.6,6.2,6.1,6.2
	C50.5,41.5,53.3,38.8,53.3,35.5"/>
</svg>
